<?xml version="1.0" encoding="UTF-8" standalone="no"?>
<!-- Created with Inkscape (http://www.inkscape.org/) -->

<svg
   xmlns:dc="http://purl.org/dc/elements/1.1/"
   xmlns:cc="http://creativecommons.org/ns#"
   xmlns:rdf="http://www.w3.org/1999/02/22-rdf-syntax-ns#"
   xmlns:svg="http://www.w3.org/2000/svg"
   xmlns="http://www.w3.org/2000/svg"
   xmlns:sodipodi="http://sodipodi.sourceforge.net/DTD/sodipodi-0.dtd"
   xmlns:inkscape="http://www.inkscape.org/namespaces/inkscape"
   viewBox="0 0 400 400.00001"
   id="svg2"
   version="1.1"
   inkscape:version="0.91 r13725"
   sodipodi:docname="help.svg">
  <defs
     id="defs4" />
  <sodipodi:namedview
     id="base"
     pagecolor="#ffffff"
     bordercolor="#666666"
     borderopacity="1.0"
     inkscape:pageopacity="0.0"
     inkscape:pageshadow="2"
     inkscape:zoom="1.6437355"
     inkscape:cx="187.95106"
     inkscape:cy="201.03418"
     inkscape:document-units="px"
     inkscape:current-layer="layer1"
     showgrid="false"
     inkscape:window-width="1440"
     inkscape:window-height="878"
     inkscape:window-x="-8"
     inkscape:window-y="-8"
     inkscape:window-maximized="1"
     inkscape:snap-bbox="true"
     inkscape:snap-global="true"
     inkscape:snap-nodes="false"
     units="px">
    <inkscape:grid
       type="xygrid"
       id="grid10250" />
  </sodipodi:namedview>
  <metadata
     id="metadata7">
    <rdf:RDF>
      <cc:Work
         rdf:about="">
        <dc:format>image/svg+xml</dc:format>
        <dc:type
           rdf:resource="http://purl.org/dc/dcmitype/StillImage" />
        <dc:title></dc:title>
      </cc:Work>
    </rdf:RDF>
  </metadata>
  <g
     inkscape:label="Layer 1"
     inkscape:groupmode="layer"
     id="layer1"
     transform="translate(0,-652.36213)">
    <circle
       style="fill:none;fill-opacity:1;fill-rule:evenodd;stroke:currentcolor;stroke-width:13.85777664;stroke-linecap:butt;stroke-linejoin:miter;stroke-miterlimit:4.19999981;stroke-dasharray:none;stroke-opacity:1"
       id="path3336"
       cx="200"
       cy="852.36212"
       r="173.07111" />
    <flowRoot
       xml:space="preserve"
       id="flowRoot10339"
       style="fill:black;stroke:none;stroke-opacity:1;stroke-width:1px;stroke-linejoin:miter;stroke-linecap:butt;fill-opacity:1;font-family:sans-serif;font-style:normal;font-weight:normal;font-size:40px;line-height:125%;letter-spacing:0px;word-spacing:0px"><flowRegion
         id="flowRegion10341"><rect
           id="rect10343"
           width="170.95207"
           height="212.32126"
           x="119.84897"
           y="96.42318" /></flowRegion><flowPara
         id="flowPara10345" /></flowRoot>    <g
       transform="translate(19.467852,-36.502223)"
       style="font-style:normal;font-weight:normal;font-size:301.65612793px;line-height:125%;font-family:sans-serif;letter-spacing:0px;word-spacing:0px;fill:currentcolor;fill-opacity:1;stroke:none;stroke-width:1px;stroke-linecap:butt;stroke-linejoin:miter;stroke-opacity:1"
       id="flowRoot10363">
      <path
         d="m 254.74239,835.92047 q 0,14.43471 -5.15526,25.77628 -5.15526,11.19427 -13.55096,19.88456 -8.24841,8.3957 -19.0008,15.76035 -10.75239,7.36465 -22.83042,14.28743 l 0,33.14093 -26.36545,0 0,-44.92438 q 9.57405,-5.44984 20.62102,-11.93073 11.19427,-6.4809 18.26434,-13.10908 8.54299,-7.65924 13.25637,-15.76036 4.71338,-8.24841 4.71338,-20.91561 0,-16.64411 -11.34156,-24.74523 -11.19428,-8.24841 -29.01673,-8.24841 -15.90765,0 -30.19507,5.00797 -14.14013,5.00796 -22.38854,10.16322 l -1.47293,0 0,-30.04778 q 10.31051,-3.97691 26.07086,-7.07007 15.90765,-3.24044 30.04778,-3.24044 31.668,0 49.93234,15.46576 18.41163,15.31848 18.41163,40.50559 z m -58.18075,167.76673 -30.04778,0 0,-31.0788 30.04778,0 0,31.0788 z"
         style=""
         id="path11598" />
    </g>
  </g>
</svg>
