<?xml version="1.0" encoding="UTF-8" standalone="no"?>
<!-- Created with Inkscape (http://www.inkscape.org/) -->

<svg
   xmlns:dc="http://purl.org/dc/elements/1.1/"
   xmlns:cc="http://creativecommons.org/ns#"
   xmlns:rdf="http://www.w3.org/1999/02/22-rdf-syntax-ns#"
   xmlns:svg="http://www.w3.org/2000/svg"
   xmlns="http://www.w3.org/2000/svg"
   xmlns:sodipodi="http://sodipodi.sourceforge.net/DTD/sodipodi-0.dtd"
   xmlns:inkscape="http://www.inkscape.org/namespaces/inkscape"
   viewBox="0 0 400 400.00001"
   id="svg2"
   version="1.1"
   inkscape:version="0.91 r13725"
   sodipodi:docname="help.svg">
  <defs
     id="defs4" />
  <sodipodi:namedview
     id="base"
     pagecolor="#ffffff"
     bordercolor="#666666"
     borderopacity="1.0"
     inkscape:pageopacity="0.0"
     inkscape:pageshadow="2"
     inkscape:zoom="1.1622965"
     inkscape:cx="189.28511"
     inkscape:cy="201.03418"
     inkscape:document-units="px"
     inkscape:current-layer="layer1"
     showgrid="false"
     inkscape:window-width="1440"
     inkscape:window-height="878"
     inkscape:window-x="-8"
     inkscape:window-y="-8"
     inkscape:window-maximized="1"
     inkscape:snap-bbox="true"
     inkscape:snap-global="true"
     inkscape:snap-nodes="false"
     units="px">
    <inkscape:grid
       type="xygrid"
       id="grid10250" />
  </sodipodi:namedview>
  <metadata
     id="metadata7">
    <rdf:RDF>
      <cc:Work
         rdf:about="">
        <dc:format>image/svg+xml</dc:format>
        <dc:type
           rdf:resource="http://purl.org/dc/dcmitype/StillImage" />
        <dc:title />
      </cc:Work>
    </rdf:RDF>
  </metadata>
  <g
     inkscape:label="Layer 1"
     inkscape:groupmode="layer"
     id="layer1"
     transform="translate(0,-652.36213)">
    <path
       style="fill:currentcolor;fill-opacity:1;fill-rule:evenodd;stroke:currentcolor;stroke-width:0;stroke-linecap:butt;stroke-linejoin:miter;stroke-miterlimit:4.19999981;stroke-dasharray:none;stroke-opacity:1"
       d="M 181.93164 61.134766 A 156.93232 156.93232 0 0 0 25 218.06836 A 156.93232 156.93232 0 0 0 181.93164 375 A 156.93232 156.93232 0 0 0 338.86523 218.06836 A 156.93232 156.93232 0 0 0 338.73633 215.53125 A 110.55698 117.28627 0 0 1 323.43359 221.76367 A 141.68747 141.68747 0 0 1 181.93164 359.75586 A 141.68747 141.68747 0 0 1 40.244141 218.06836 A 141.68747 141.68747 0 0 1 181.93164 76.380859 A 141.68747 141.68747 0 0 1 185.76953 76.578125 A 110.55698 117.28627 0 0 1 191.01562 61.53125 A 156.93232 156.93232 0 0 0 181.93164 61.134766 z "
       transform="translate(0,652.36213)"
       id="path3336" />
    <flowRoot
       xml:space="preserve"
       id="flowRoot10339"
       style="fill:black;stroke:none;stroke-opacity:1;stroke-width:1px;stroke-linejoin:miter;stroke-linecap:butt;fill-opacity:1;font-family:sans-serif;font-style:normal;font-weight:normal;font-size:40px;line-height:125%;letter-spacing:0px;word-spacing:0px"><flowRegion
         id="flowRegion10341"><rect
           id="rect10343"
           width="170.95207"
           height="212.32126"
           x="119.84897"
           y="96.42318" /></flowRegion><flowPara
         id="flowPara10345" /></flowRoot>    <path
       style="fill:currentcolor;fill-opacity:1;fill-rule:evenodd;stroke:currentcolor;stroke-width:1.1487416px;stroke-linecap:butt;stroke-linejoin:miter;stroke-opacity:1"
       d="M 233.82031 52.638672 L 251.99023 98.763672 C 251.99023 98.763672 177.91092 128.11717 152.75195 162.36133 C 127.59297 196.60549 128.29082 213.7057 124.09766 232.94531 C 121.72709 243.82221 120.6647 261.81501 120.19727 277.89648 A 68.399071 55.493584 0 0 1 122.60156 277.82812 A 68.399071 55.493584 0 0 1 131.56641 278.36719 C 138.01947 219.7214 145.24969 210.10297 166.72852 184.72461 C 193.63199 152.93674 270.85938 142.09375 270.85938 142.09375 L 290.42773 195.20703 L 370.79688 79.199219 L 233.82031 52.638672 z "
       transform="translate(0,652.36213)"
       id="path4155" />
  </g>
</svg>
