<?xml version="1.0" encoding="UTF-8" standalone="no"?>
<!-- Created with Inkscape (http://www.inkscape.org/) -->

<svg
   xmlns:dc="http://purl.org/dc/elements/1.1/"
   xmlns:cc="http://creativecommons.org/ns#"
   xmlns:rdf="http://www.w3.org/1999/02/22-rdf-syntax-ns#"
   xmlns:svg="http://www.w3.org/2000/svg"
   xmlns="http://www.w3.org/2000/svg"
   xmlns:sodipodi="http://sodipodi.sourceforge.net/DTD/sodipodi-0.dtd"
   xmlns:inkscape="http://www.inkscape.org/namespaces/inkscape"
   viewBox="0 0 400 400.00001"
   id="svg2"
   version="1.1"
   inkscape:version="0.91 r13725"
   sodipodi:docname="locked.svg">
  <defs
     id="defs4" />
  <sodipodi:namedview
     id="base"
     pagecolor="#ffffff"
     bordercolor="#666666"
     borderopacity="1.0"
     inkscape:pageopacity="0.0"
     inkscape:pageshadow="2"
     inkscape:zoom="1.6437355"
     inkscape:cx="187.95106"
     inkscape:cy="201.03418"
     inkscape:document-units="px"
     inkscape:current-layer="layer1"
     showgrid="true"
     inkscape:window-width="1208"
     inkscape:window-height="762"
     inkscape:window-x="10"
     inkscape:window-y="11"
     inkscape:window-maximized="0"
     inkscape:snap-bbox="true"
     inkscape:snap-global="true"
     inkscape:snap-nodes="false"
     units="px"
     inkscape:snap-grids="true">
    <inkscape:grid
       type="xygrid"
       id="grid10250"
       spacingx="10"
       spacingy="10"
       visible="true"
       dotted="true" />
  </sodipodi:namedview>
  <metadata
     id="metadata7">
    <rdf:RDF>
      <cc:Work
         rdf:about="">
        <dc:format>image/svg+xml</dc:format>
        <dc:type
           rdf:resource="http://purl.org/dc/dcmitype/StillImage" />
        <dc:title></dc:title>
      </cc:Work>
    </rdf:RDF>
  </metadata>
  <g
     inkscape:label="Layer 1"
     inkscape:groupmode="layer"
     id="layer1"
     transform="translate(0,-652.36213)">
    <circle
       style="fill:none;fill-opacity:1;fill-rule:evenodd;stroke:currentColor;stroke-width:13.85777664;stroke-linecap:butt;stroke-linejoin:miter;stroke-miterlimit:4.19999981;stroke-dasharray:none;stroke-opacity:1"
       id="path3336"
       cx="200"
       cy="852.36212"
       r="173.07111" />
    <flowRoot
       xml:space="preserve"
       id="flowRoot10339"
       style="fill:black;stroke:none;stroke-opacity:1;stroke-width:1px;stroke-linejoin:miter;stroke-linecap:butt;fill-opacity:1;font-family:sans-serif;font-style:normal;font-weight:normal;font-size:40px;line-height:125%;letter-spacing:0px;word-spacing:0px"><flowRegion
         id="flowRegion10341"><rect
           id="rect10343"
           width="170.95207"
           height="212.32126"
           x="119.84897"
           y="96.42318" /></flowRegion><flowPara
         id="flowPara10345"></flowPara></flowRoot>    <path
       style="fill:currentColor;fill-opacity:1;fill-rule:nonzero;stroke-width:3.9849999;stroke-miterlimit:4.19999981;stroke-dasharray:none"
       d="m 200,750.19473 a 69.999992,69.999992 0 0 0 -70,70 l -9.18164,0 C 109.28454,820.19473 100,829.47927 100,841.01309 l 0,88.36328 c 0,11.53382 9.28454,20.81836 20.81836,20.81836 l 158.36328,0 c 11.53382,0 20.81836,-9.28454 20.81836,-20.81836 l 0,-88.36328 c 0,-11.53382 -9.28454,-20.81836 -20.81836,-20.81836 l -9.18164,0 a 69.999992,69.999992 0 0 0 -70,-70 z m -1.10938,23.01367 a 46.999996,46.999992 0 0 1 2.21876,0 46.999996,46.999992 0 0 1 22.39062,6.28321 46.999996,46.999992 0 0 1 23.5,40.70312 l -94,0 a 46.999996,46.999992 0 0 1 23.5,-40.70312 46.999996,46.999992 0 0 1 22.39062,-6.28321 z M 200,860.19473 a 19.999994,19.999994 0 0 1 20,20 19.999994,19.999994 0 0 1 -11.32812,18.00391 l 0,16.36718 c 0,3.87593 -3.12212,6.9961 -6.99805,6.9961 l -2.43164,0 c -3.87593,0 -6.99805,-3.12017 -6.99805,-6.9961 l 0,-15.9375 A 19.999994,19.999994 0 0 1 180,880.19473 a 19.999994,19.999994 0 0 1 20,-20 z"
       id="rect10375"
       inkscape:connector-curvature="0" />
  </g>
</svg>
