<?xml version="1.0" encoding="UTF-8" standalone="no"?>
<!-- Created with Inkscape (http://www.inkscape.org/) -->

<svg
   xmlns:dc="http://purl.org/dc/elements/1.1/"
   xmlns:cc="http://creativecommons.org/ns#"
   xmlns:rdf="http://www.w3.org/1999/02/22-rdf-syntax-ns#"
   xmlns:svg="http://www.w3.org/2000/svg"
   xmlns="http://www.w3.org/2000/svg"
   xmlns:sodipodi="http://sodipodi.sourceforge.net/DTD/sodipodi-0.dtd"
   xmlns:inkscape="http://www.inkscape.org/namespaces/inkscape"
   viewBox="0 0 400 400.00001"
   id="svg2"
   version="1.1"
   inkscape:version="0.91 r13725"
   sodipodi:docname="plus.svg">
  <defs
     id="defs4" />
  <sodipodi:namedview
     id="base"
     pagecolor="#ffffff"
     bordercolor="#666666"
     borderopacity="1.0"
     inkscape:pageopacity="0.0"
     inkscape:pageshadow="2"
     inkscape:zoom="1.6437355"
     inkscape:cx="118.71922"
     inkscape:cy="198.87587"
     inkscape:document-units="px"
     inkscape:current-layer="layer1"
     showgrid="false"
     inkscape:window-width="1440"
     inkscape:window-height="878"
     inkscape:window-x="-8"
     inkscape:window-y="-8"
     inkscape:window-maximized="1"
     inkscape:snap-bbox="true"
     inkscape:snap-global="true"
     inkscape:snap-nodes="false"
     units="px">
    <inkscape:grid
       type="xygrid"
       id="grid10250" />
  </sodipodi:namedview>
  <metadata
     id="metadata7">
    <rdf:RDF>
      <cc:Work
         rdf:about="">
        <dc:format>image/svg+xml</dc:format>
        <dc:type
           rdf:resource="http://purl.org/dc/dcmitype/StillImage" />
        <dc:title />
      </cc:Work>
    </rdf:RDF>
  </metadata>
  <g
     inkscape:label="Layer 1"
     inkscape:groupmode="layer"
     id="layer1"
     transform="translate(0,-652.36213)">
    <circle
       style="fill:none;fill-opacity:1;fill-rule:evenodd;stroke:currentcolor;stroke-width:13.85777664;stroke-linecap:butt;stroke-linejoin:miter;stroke-miterlimit:4.19999981;stroke-dasharray:none;stroke-opacity:1"
       id="path3336"
       cx="200"
       cy="852.36212"
       r="173.07111" />
    <path
       style="fill-opacity:1;fill-rule:nonzero;fill:currentcolor;stroke-width:3.9849999;stroke-miterlimit:4.19999981;stroke-dasharray:none"
       d="m 198.9976,88.517185 c -7.90201,0 -14.26367,6.361664 -14.26367,14.263675 l 0,81.95307 -81.95307,0 c -7.902011,0 -14.263675,6.36166 -14.263675,14.26367 l 0,2.0048 c 0,7.90201 6.361664,14.26367 14.263675,14.26367 l 81.95307,0 0,81.95307 c 0,7.90201 6.36166,14.26367 14.26367,14.26367 l 2.0048,0 c 7.90201,0 14.26367,-6.36166 14.26367,-14.26367 l 0,-81.95307 81.95307,0 c 7.90201,0 14.26367,-6.36166 14.26367,-14.26367 l 0,-2.0048 c 0,-7.90201 -6.36166,-14.26367 -14.26367,-14.26367 l -81.95307,0 0,-81.95307 c 0,-7.902011 -6.36166,-14.263675 -14.26367,-14.263675 z"
       transform="translate(0,652.36213)"
       id="rect10260-8"
       inkscape:connector-curvature="0"
       sodipodi:nodetypes="sscsssscsssscsssscsss" />
  </g>
</svg>
