<?xml version="1.0" encoding="UTF-8" standalone="no"?>
<svg
   xmlns:dc="http://purl.org/dc/elements/1.1/"
   xmlns:cc="http://creativecommons.org/ns#"
   xmlns:rdf="http://www.w3.org/1999/02/22-rdf-syntax-ns#"
   xmlns:svg="http://www.w3.org/2000/svg"
   xmlns="http://www.w3.org/2000/svg"
   xmlns:sodipodi="http://sodipodi.sourceforge.net/DTD/sodipodi-0.dtd"
   xmlns:inkscape="http://www.inkscape.org/namespaces/inkscape"
   viewBox="0 0 800 400.00001"
   id="svg2"
   version="1.1"
   inkscape:version="0.91 r13725"
   sodipodi:docname="plus-payment.svg">
  <sodipodi:namedview
     pagecolor="#ffffff"
     bordercolor="#666666"
     borderopacity="1"
     objecttolerance="10"
     gridtolerance="10"
     guidetolerance="10"
     inkscape:pageopacity="0"
     inkscape:pageshadow="2"
     inkscape:window-width="1251"
     inkscape:window-height="644"
     id="namedview5354"
     showgrid="false"
     inkscape:zoom="0.3975"
     inkscape:cx="-28.930818"
     inkscape:cy="200"
     inkscape:window-x="0"
     inkscape:window-y="0"
     inkscape:window-maximized="0"
     inkscape:current-layer="layer1" />
  <defs
     id="defs4" />
  <metadata
     id="metadata7">
    <rdf:RDF>
      <cc:Work
         rdf:about="">
        <dc:format>image/svg+xml</dc:format>
        <dc:type
           rdf:resource="http://purl.org/dc/dcmitype/StillImage" />
        <dc:title />
      </cc:Work>
    </rdf:RDF>
  </metadata>
  <g
     id="layer1"
     transform="translate(0,-652.36213)">
    <path
       style="fill-opacity:1;fill-rule:nonzero;stroke-width:3.9849999;stroke-miterlimit:4.19999981;stroke-dasharray:none"
       d="m 498.99757,740.87932 c -7.90201,0 -14.26367,6.36166 -14.26367,14.26367 l 0,81.95307 -81.95307,0 c -7.90201,0 -14.26367,6.36166 -14.26367,14.26367 l 0,2.0048 c 0,7.90201 6.36166,14.26367 14.26367,14.26367 l 81.95307,0 0,81.95307 c 0,7.90201 6.36166,14.26367 14.26367,14.26367 l 2.0048,0 c 7.90201,0 14.26367,-6.36166 14.26367,-14.26367 l 0,-81.95307 81.95307,0 c 7.90201,0 14.26367,-6.36166 14.26367,-14.26367 l 0,-2.0048 c 0,-7.90201 -6.36166,-14.26367 -14.26367,-14.26367 l -81.95307,0 0,-81.95307 c 0,-7.90201 -6.36166,-14.26368 -14.26367,-14.26368 z"
       id="rect10260-8" />
    <path
       style="opacity:0.97000002;fill-opacity:1;fill-rule:nonzero;stroke-width:3.9849999;stroke-miterlimit:4.19999981;stroke-dasharray:none"
       d="m 176.7637,855.2801 c -18.47895,0 -29.83649,15.41632 -33.45899,33.62891 l 0,6.72656 185.39453,0 c -3.2956,-12.94881 -5.18551,-26.4569 -5.50195,-40.35547 l -146.43359,0 z m -33.45899,69.94922 0,64.5664 c 0,18.57288 14.98004,33.63088 33.45899,33.63088 l 188.71484,0 c 15.92018,0 29.2327,-11.1789 32.61719,-26.15041 -25.46674,-18.3345 -45.95343,-43.15344 -59.02735,-72.04687 l -195.76367,0 z m 121.01172,40.91406 c 8.13073,-3e-5 14.72266,6.62477 14.72266,14.79687 0,8.17215 -6.59189,14.79692 -14.72266,14.79688 -8.13075,0 -14.72266,-6.62477 -14.72266,-14.79688 0,-8.1721 6.59191,-14.79687 14.72266,-14.79687 z m 46.84375,0 c 8.13074,0 14.7207,6.62477 14.7207,14.79687 0,8.17211 -6.58996,14.79688 -14.7207,14.79688 -8.13073,0 -14.72266,-6.62477 -14.72266,-14.79688 0,-8.1721 6.59193,-14.79687 14.72266,-14.79687 z m 46.8418,0 c 8.13074,0 14.72265,6.62477 14.72265,14.79687 0,8.17211 -6.59191,14.79688 -14.72265,14.79688 -8.13073,0 -14.72266,-6.62477 -14.72266,-14.79688 0,-8.1721 6.59193,-14.79687 14.72266,-14.79687 z"
       id="path5676"
       inkscape:connector-curvature="0" />
  </g>
  <path
     id="path3336-2-4"
     d="M 500,19.999994 A 180,180 0 0 0 320,200 180,180 0 0 0 500,380 180,180 0 0 0 680,200 180,180 0 0 0 500,19.999994 Z m 0,13 A 167,167 0 0 1 667,200 167,167 0 0 1 500,367 167,167 0 0 1 333,200 167,167 0 0 1 500,32.999994 Z"
     style="fill-opacity:1;fill-rule:evenodd;stroke-width:0;stroke-linecap:butt;stroke-linejoin:miter;stroke-miterlimit:4.19999981;stroke-dasharray:none;stroke-opacity:1" />
</svg>
