<?xml version="1.0" encoding="UTF-8" standalone="no"?>
<!-- Created with Inkscape (http://www.inkscape.org/) -->

<svg
   xmlns:dc="http://purl.org/dc/elements/1.1/"
   xmlns:cc="http://creativecommons.org/ns#"
   xmlns:rdf="http://www.w3.org/1999/02/22-rdf-syntax-ns#"
   xmlns:svg="http://www.w3.org/2000/svg"
   xmlns="http://www.w3.org/2000/svg"
   xmlns:sodipodi="http://sodipodi.sourceforge.net/DTD/sodipodi-0.dtd"
   xmlns:inkscape="http://www.inkscape.org/namespaces/inkscape"
   viewBox="0 0 400 400.00001"
   id="svg2"
   version="1.1"
   inkscape:version="0.91 r13725"
   sodipodi:docname="unlocked.svg">
  <defs
     id="defs4" />
  <sodipodi:namedview
     id="base"
     pagecolor="#ffffff"
     bordercolor="#666666"
     borderopacity="1.0"
     inkscape:pageopacity="0.0"
     inkscape:pageshadow="2"
     inkscape:zoom="1.6437355"
     inkscape:cx="187.95106"
     inkscape:cy="201.03418"
     inkscape:document-units="px"
     inkscape:current-layer="layer1"
     showgrid="true"
     inkscape:window-width="1208"
     inkscape:window-height="762"
     inkscape:window-x="10"
     inkscape:window-y="11"
     inkscape:window-maximized="0"
     inkscape:snap-bbox="true"
     inkscape:snap-global="true"
     inkscape:snap-nodes="false"
     units="px"
     inkscape:snap-grids="true">
    <inkscape:grid
       type="xygrid"
       id="grid10250"
       spacingx="10"
       spacingy="10"
       visible="true"
       dotted="true" />
  </sodipodi:namedview>
  <metadata
     id="metadata7">
    <rdf:RDF>
      <cc:Work
         rdf:about="">
        <dc:format>image/svg+xml</dc:format>
        <dc:type
           rdf:resource="http://purl.org/dc/dcmitype/StillImage" />
        <dc:title></dc:title>
      </cc:Work>
    </rdf:RDF>
  </metadata>
  <g
     inkscape:label="Layer 1"
     inkscape:groupmode="layer"
     id="layer1"
     transform="translate(0,-652.36213)">
    <circle
       style="fill:none;fill-opacity:1;fill-rule:evenodd;stroke:currentColor;stroke-width:13.85777664;stroke-linecap:butt;stroke-linejoin:miter;stroke-miterlimit:4.19999981;stroke-dasharray:none;stroke-opacity:1"
       id="path3336"
       cx="200"
       cy="852.36212"
       r="173.07111" />
    <flowRoot
       xml:space="preserve"
       id="flowRoot10339"
       style="fill:black;stroke:none;stroke-opacity:1;stroke-width:1px;stroke-linejoin:miter;stroke-linecap:butt;fill-opacity:1;font-family:sans-serif;font-style:normal;font-weight:normal;font-size:40px;line-height:125%;letter-spacing:0px;word-spacing:0px"><flowRegion
         id="flowRegion10341"><rect
           id="rect10343"
           width="170.95207"
           height="212.32126"
           x="119.84897"
           y="96.42318" /></flowRegion><flowPara
         id="flowPara10345"></flowPara></flowRoot>    <path
       style="fill:currentColor;fill-opacity:1;fill-rule:nonzero;stroke-width:3.9849999;stroke-miterlimit:4.19999981;stroke-dasharray:none"
       d="M 200 100 A 69.999992 69.999992 0 0 0 130 170 L 120.81836 170 C 109.28454 170 100 179.28454 100 190.81836 L 100 279.18164 C 100 290.71546 109.28454 300 120.81836 300 L 279.18164 300 C 290.71546 300 300 290.71546 300 279.18164 L 300 190.81836 C 300 179.28454 290.71546 170 279.18164 170 L 270 170 L 247 170 L 200 170 L 153 170 A 46.999996 46.999992 0 0 1 176.5 129.29688 A 46.999996 46.999992 0 0 1 198.89062 123.01367 A 46.999996 46.999992 0 0 1 201.10938 123.01367 A 46.999996 46.999992 0 0 1 223.5 129.29688 A 46.999996 46.999992 0 0 1 240.66602 146.52148 L 260.56836 135.03125 A 69.999992 69.999992 0 0 0 200 100 z M 200 210 A 19.999994 19.999994 0 0 1 220 230 A 19.999994 19.999994 0 0 1 208.67188 248.00391 L 208.67188 264.37109 C 208.67188 268.24702 205.54976 271.36719 201.67383 271.36719 L 199.24219 271.36719 C 195.36626 271.36719 192.24414 268.24702 192.24414 264.37109 L 192.24414 248.43359 A 19.999994 19.999994 0 0 1 180 230 A 19.999994 19.999994 0 0 1 200 210 z "
       transform="translate(0,652.36213)"
       id="rect10375" />
  </g>
</svg>
